<?xml version="1.0" encoding="utf-8"?>
<!-- Generator: Adobe Illustrator 24.0.0, SVG Export Plug-In . SVG Version: 6.00 Build 0)  -->
<svg version="1.1" id="Layer_1" xmlns="http://www.w3.org/2000/svg" xmlns:xlink="http://www.w3.org/1999/xlink" x="0px" y="0px"
	 viewBox="0 0 4000 3188" style="enable-background:new 0 0 4000 3188;" xml:space="preserve">
<style type="text/css">
	.st0{fill:#238C44;}
	.st1{font-family:'Molengo';}
	.st2{font-size:607.17px;}
	.st3{font-family:'RoundedElegance-Regular';}
	.st4{font-size:185.5344px;}
	.st5{fill:#D4AF37;}
</style>
<g>
	
		<image style="overflow:visible;opacity:0.29;enable-background:new    ;" width="3839" height="505" xlink:href="A3BF1BBF.png"  transform="matrix(1.0433 0 0 1.0433 -43.6274 2338.5649)">
	</image>
	
		<image style="overflow:visible;enable-background:new    ;" width="2489" height="133" xlink:href="A3BF1BBD.png"  transform="matrix(1 0 0 1 689.0266 2343.5015)">
	</image>
	<text transform="matrix(0.9997 0 0 1 711.7246 2119.9609)" class="st0 st1 st2">Coverlink</text>
	<text transform="matrix(1 0 0 1 808.4463 2314.4817)" class="st3 st4">Micro-Insurance (Pvt) Ltd</text>
	<path class="st5" d="M1769,1249.9l128-133l-133-129c-5.2-9.3-15.8-30.9-15-60c1-34.9,17.7-58.8,24-67
		c121.3-125.3,242.7-250.7,364-376c6.6-6.1,27.5-24,60-27c38.5-3.6,65.8,16.2,72,21c131.7,125,263.3,250,395,375
		c5.7,10.5,14.8,30.4,16,57c1.5,33.3-10.1,58.2-16,69c-122.3,126-244.7,252-367,378c-8.2,7.5-27.3,22.9-56,28
		c-46.4,8.2-81.5-17.1-88-22c-25-25.7-50-51.3-75-77l-126,138l206,194c12.2,6.5,36.9,17.6,70,18.1c35.9,0.6,62.7-11.5,75-18.1
		c192-201.7,384-403.3,576-605c8.9-7.3,39.1-33.8,48-80c10.6-54.8-16.6-96.2-22-104c-202-192.3-404-384.7-606-577
		c-6.2-6.4-42.8-43.4-101-43c-64.1,0.4-102,45.8-107,52c-188,198.3-376,396.7-564,595c-6.5,8.5-29.1,39.9-27,85
		c1.8,37.8,19.9,63.8,27,73C1607.7,1093.2,1688.3,1171.6,1769,1249.9z"/>
	<path class="st0" d="M1889.4,427.1c-63.6-62.2-127.1-124.3-190.7-186.5c-8.4-6.5-38.4-28-81.8-27c-39.7,1-66.8,20.1-75.7,27
		c-195,199.7-390,399.4-585,599.1c-6.9,8.1-29.9,37.1-31.3,81c-1.3,43.8,19.8,74.1,26.2,82.7c201.9,197.2,403.9,394.4,605.8,591.6
		c7.2,6.9,41.3,38.1,93.7,37.8c41-0.2,69.6-19.7,79.3-27c192.9-197.7,385.9-395.4,578.8-593.2c6-5.8,39.9-39.8,38.8-92.8
		c-0.8-40.6-21.6-68.2-28.7-76.8c-81.3-79.9-162.6-159.8-243.8-239.6c-41.4,44.1-82.9,88.1-124.3,132.2
		c42.3,41.2,84.6,82.3,126.8,123.5c5.5,6.8,22.8,29.7,22.8,63.3c0,25.2-9.7,43.7-14.6,51.8c-122.3,128.3-244.5,256.5-366.8,384.8
		c-8.1,7-29.4,23.6-61.6,27.6c-39.7,4.9-69.2-12.6-77.4-17.9c-131-127.3-262-254.5-393-381.8c-5.4-9.3-19.2-36.1-15.6-72
		c3-30.1,16.7-51,23.3-59.9c123-125.3,246-250.5,369-375.8c6.8-5,31.9-22.1,67.5-20c32.4,2,53.9,18.7,60.8,24.5
		c25.6,24.5,51.2,48.9,76.8,73.4C1809,513.7,1849.2,470.4,1889.4,427.1z"/>
</g>
</svg>

